<svg xmlns="http://www.w3.org/2000/svg" width="100%" height="100%" viewBox="0 0 50 60" class="loader">
  <path
    class="track"
    fill="none"
    stroke="black"
    stroke-width="1"
    d="M36.72,35.47a11.94,11.94,0,0,0-3.78,1.9c-1.11,1.08-1.43,2.6-1.95,4h0A15.38,15.38,0,0,1,30.2,43c-3.09,5.75-9.67,9.24-15.63,8A10.2,10.2,0,0,1,6.3,43.1C5,37.19,8.42,30.6,14.16,27.46a15.54,15.54,0,0,1,1.71-.81h0c1.36-.54,2.87-.86,3.95-2a11.79,11.79,0,0,0,1.88-3.77h0A16,16,0,0,1,30.84,12c6.93-2.57,13.74.68,15.22,7.26a12.84,12.84,0,0,1-.51,7h0a16,16,0,0,1-8.82,9.2h0Z"/>
  <path
    class="animate"
    id="polarloader"
    fill="none"
    stroke="black"
    stroke-width="1"
    d="M36.72,35.47a11.94,11.94,0,0,0-3.78,1.9c-1.11,1.08-1.43,2.6-1.95,4h0A15.38,15.38,0,0,1,30.2,43c-3.09,5.75-9.67,9.24-15.63,8A10.2,10.2,0,0,1,6.3,43.1C5,37.19,8.42,30.6,14.16,27.46a15.54,15.54,0,0,1,1.71-.81h0c1.36-.54,2.87-.86,3.95-2a11.79,11.79,0,0,0,1.88-3.77h0A16,16,0,0,1,30.84,12c6.93-2.57,13.74.68,15.22,7.26a12.84,12.84,0,0,1-.51,7h0a16,16,0,0,1-8.82,9.2h0Z"/>
</svg>
