<svg xmlns="http://www.w3.org/2000/svg" class="header__logo-svg" viewBox="0 0 1093 176.7">
	<path class="logo--white" d="M202.9,49.9l-47.3,87.8h-0.5l1.4-87.8H98.2l-49.5,87.8h-0.5l2.5-87.8H0l8.2,122h56.4l52-88.3h0.5l-1.6,88.3H172
	l77.9-122C249.9,49.9,202.9,49.9,202.9,49.9z M735,61.5c-6.8-7.8-16.9-14.1-32-14.5c-19.4-0.5-37.3,4.9-53.6,18.5h-0.5L667.7,0
	l-52.3,12.1l-45.8,159.7h44.8l6.5-21.8c2.3,13.6,19.2,24.6,41.6,24.6c41.8,0,68.3-25.3,78.6-61.4C746.1,95.2,745.7,73.7,735,61.5z
	 M703.7,109.5c-5.6,19.4-20.5,32.8-38.8,32.8c-16.2,0-25.8-13.3-20.7-31.2c5.2-18.3,21-31.8,38.8-31.8
	C701.8,79.3,708.3,93.4,703.7,109.5z M768.5,49.8l-35,122h48.6l35-122C817.1,49.8,768.5,49.8,768.5,49.8z M972.6,49.8h-53.1
	l-55.2,51.3h-0.5L892.8,0l-52.1,12.1l-45.8,159.7h48.6l17.3-60.4h0.5l21.5,60.4h58.8l-34-66C907.6,105.8,972.6,49.8,972.6,49.8z
	 M306.3,46.8C288,46.8,272.6,48,260,51l-21.4,33.4c13.2-5.4,36.4-11.2,50.8-11.2c24.2,0,25.9,9.4,23.8,16l-0.6,1.8
	c-55.8-0.3-97.4,15.2-107.4,47.5c-6.1,19.8,7.3,38.1,39.3,38.1c18.7,0,36.6-5.3,49.9-15.3h1l-3.6,12.5h48.5
	c2.6-8.6,20.8-72.8,20.8-72.8C367.9,71.8,358.9,46.8,306.3,46.8z M302.7,128.6c-0.7,2.3-1.7,4.5-3,6.6c-5.7,7.9-17.7,14.2-29.9,14.2
	c-11,0-17.9-4.8-14.8-14.7c4.6-15,26.1-19.8,51.9-19.6L302.7,128.6z M1088.4,72.9c-4.2-8.2-11.2-14.2-20.6-18
	c-9.2-3.7-20.4-5.6-33.3-5.6c-21.5,0-41,5.5-58,16.5s-28.6,26.7-34.9,47.1c-6.8,21.9-4.1,38.1,8.1,48s28.2,14.8,47.9,14.8
	c23.7,0,44.2-5.8,61-17.4c10.7-7.3,17.8-14.6,21.2-21.7l1.2-2.6h-44.9l-0.8,0.8c-2.7,2.9-5.8,5.5-9.2,7.5c-6.1,3.3-12.9,5-19.8,4.9
	c-7,0-12.6-1.3-16.6-3.9c-6.3-4-8.4-11-6.1-20.9h102.6l0.5-1.5c3.3-10,5.3-17.8,5.8-23.2C1093.7,88.4,1092.3,80,1088.4,72.9z
	 M1048,98.6h-55.6c0.2-0.3,0.3-0.6,0.5-0.9c5.4-13,17.3-23.4,34.9-23.4C1047.7,74.3,1052.1,85.2,1048,98.6z M535.1,124.3l12.9-45h34
	l8.5-29.5h-34L568,9.6l-51.4,12.9l-7.9,27.4h-58.6l11.6-40.3l-51.5,12.9l-7.9,27.4h-49.5c5.9,2.9,9.9,6.4,13,11.2
	c3.4,5.4,4.9,11.4,5.4,18.3h21.9L378.9,129c-8.3,29-2.6,45.6,40.9,45.6c11.4,0,20.6-1.2,29.5-2.2l7.7-26.9l0.1-0.6
	c-5.1,0.7-10.5,1.6-15.3,1.6c-15.4,0-17.3-7.5-13-22.2l12.9-45h57.7L485.2,129c-8.3,29-2.6,45.6,40.9,45.6c11.5,0,20.6-1.2,29.5-2.2
	l7.9-27.6c-5.1,0.7-10.5,1.6-15.3,1.6C532.8,146.6,530.9,139,535.1,124.3L535.1,124.3z"/>
	<polygon class="logo--red" points="831.3,0 779.3,12.1 773.3,32.9 821.9,32.9 "/>
	<polygon class="logo--red" points="821,36.2 772.4,36.2 770.9,41.2 819.5,41.2 "/>
</svg>
